<?xml version="1.0" encoding="utf-8"?>
<!-- Generator: Adobe Illustrator 26.4.0, SVG Export Plug-In . SVG Version: 6.00 Build 0)  -->
<svg version="1.1" id="logo" xmlns="http://www.w3.org/2000/svg" xmlns:xlink="http://www.w3.org/1999/xlink" x="0px" y="0px"
	 viewBox="0 0 622.4 95.1" style="enable-background:new 0 0 622.4 95.1;" xml:space="preserve">
<style type="text/css">
	.st0{fill:#D20773;}
	.st1{fill:none;}
	.st2{fill:#9D1258;}
	.st3{fill:#C30A6B;}
	.st4{fill:#A4125B;}
	.st5{fill:#981254;}
	.st6{fill:#AC115F;}
	.st7{fill:#A01259;}
	.st8{fill:#BC0D68;}
	.st9{fill:#AB115E;}
	.st10{fill:#C7076D;}
	.st11{fill:#931252;}
	.st12{fill:#C9066E;}
	.st13{fill:#E5077C;}
	.st14{clip-path:url(#SVGID_00000062187747729398181450000015921537102063007403_);}
	.st15{fill:url(#SVGID_00000105420097118143060590000001676542027235823033_);}
	.st16{fill:#FFFFFF;}
</style>
<polygon id="background" class="st0" points="601,95.3 0,95.3 0,0.2 601,0.2 622.3,47.7 "/>
<g id="ribbon">
	<g>
		<polygon class="st1" points="471.4,95.3 475.6,95.3 473.5,90.7 		"/>
		<polygon class="st1" points="529.6,0.2 502.3,0.2 487.1,33.3 493.5,47.1 487.1,60.9 502.9,95.3 530.2,95.3 508.1,47.1 		"/>
		<polygon class="st1" points="475,0.2 472,0.2 473.5,3.4 		"/>
		<polygon class="st1" points="457,39.4 444.6,12.3 428.6,47.1 444.6,81.9 457,54.8 453.5,47.1 		"/>
		<polygon class="st2" points="536.8,0.2 529.6,0.2 508.1,47.1 530.2,95.3 536.2,95.3 558.3,47.1 		"/>
		<g>
			<polygon class="st3" points="444.6,81.9 450.7,95.3 471.4,95.3 473.5,90.7 457,54.8 			"/>
			<polygon class="st3" points="487.1,33.3 480.8,47.1 487.1,60.9 493.5,47.1 			"/>
			<polygon class="st3" points="450.1,0.2 444.6,12.3 457,39.4 473.5,3.4 472,0.2 			"/>
		</g>
		<polygon class="st4" points="473.5,90.7 475.6,95.3 502.9,95.3 487.1,60.9 		"/>
		<polygon class="st4" points="487.1,33.3 502.3,0.2 475,0.2 473.5,3.4 		"/>
		<polygon class="st4" points="457,39.4 453.5,47.1 457,54.8 460.5,47.1 		"/>
		<polygon class="st5" points="457,39.4 460.5,47.1 457,54.8 473.5,90.7 487.1,60.9 480.8,47.1 487.1,33.3 473.5,3.4 		"/>
		<polygon class="st6" points="428.6,47.1 444.6,12.3 439.1,0.2 422.8,0.2 401.3,47.1 423.4,95.3 438.4,95.3 444.6,81.9 		"/>
		<polygon class="st7" points="450.1,0.2 439.1,0.2 444.6,12.3 		"/>
		<polygon class="st7" points="438.4,95.3 450.7,95.3 444.6,81.9 		"/>
		<polygon class="st8" points="355.7,71.9 366.9,47.1 355.6,22.5 344.4,47.1 		"/>
		<polygon class="st8" points="390.3,0.2 379.8,0.2 385.1,11.6 		"/>
		<polygon class="st8" points="379.2,95.3 391,95.3 385.1,82.5 		"/>
		<polygon class="st0" points="577.2,5.8 558.3,47.1 577.4,88.7 596.3,47.5 		"/>
		<polygon class="st9" points="577.2,5.8 574.7,0.2 536.8,0.2 558.3,47.1 		"/>
		<polygon class="st9" points="558.3,47.1 536.2,95.3 574.3,95.3 577.4,88.7 		"/>
		<polygon class="st10" points="601,0.2 579.8,0.2 577.7,4.6 577.2,5.8 596.3,47.5 577.4,88.7 577.7,89.5 580.4,95.3 601,95.3 
			622.3,47.7 		"/>
		<polygon class="st11" points="577.7,89.5 577.4,88.7 574.3,95.3 575.1,95.3 580.4,95.3 		"/>
		<polygon class="st11" points="575.7,0.2 574.7,0.2 577.2,5.8 577.7,4.6 579.8,0.2 		"/>
		<polygon class="st0" points="365.8,0.2 345.4,0.2 355.6,22.5 		"/>
		<polygon class="st0" points="345.2,95.3 366.5,95.3 355.7,71.9 		"/>
		<polygon class="st12" points="368.8,47.1 385.1,11.6 379.8,0.2 365.8,0.2 355.6,22.5 366.9,47.1 355.7,71.9 366.5,95.3 
			379.2,95.3 385.1,82.5 		"/>
		<polygon class="st0" points="401.3,47.1 422.8,0.2 390.3,0.2 385.1,11.6 368.8,47.1 385.1,82.5 391,95.3 423.4,95.3 		"/>
	</g>
</g>
<g id="ribbon_00000031917522217006801120000000954849275492281990_">
	<polygon class="st1" points="138.7,95.3 142.9,95.3 140.8,90.7 	"/>
	<polygon class="st1" points="120.8,47.1 127.2,33.3 112,0.2 84.7,0.2 106.2,47.1 84.1,95.3 111.4,95.3 127.2,60.9 	"/>
	<polygon class="st1" points="343.3,47.1 354.6,42.5 344.4,0.2 268.9,0.2 258.7,22.5 269.9,47.1 258.6,71.9 269.1,95.3 344.1,95.3 
		354.7,91.9 	"/>
	<polygon class="st1" points="142.3,0.2 139.3,0.2 140.8,3.4 	"/>
	<polygon class="st1" points="160.8,47.1 157.3,54.8 169.7,81.9 185.7,47.1 169.7,12.3 157.3,39.4 	"/>
	<polygon class="st2" points="84.7,0.2 77.5,0.2 56,47.1 78.1,95.3 84.1,95.3 106.2,47.1 	"/>
	<polygon class="st3" points="157.3,54.8 140.8,90.7 142.9,95.3 163.6,95.3 169.7,81.9 	"/>
	<polygon class="st3" points="127.2,33.3 120.8,47.1 127.2,60.9 133.5,47.1 	"/>
	<polygon class="st3" points="157.3,39.4 169.7,12.3 164.2,0.2 142.3,0.2 140.8,3.4 	"/>
	<polygon class="st4" points="127.2,60.9 111.4,95.3 138.7,95.3 140.8,90.7 	"/>
	<polygon class="st4" points="140.8,3.4 139.3,0.2 112,0.2 127.2,33.3 	"/>
	<polygon class="st4" points="157.3,39.4 153.8,47.1 157.3,54.8 160.8,47.1 	"/>
	<polygon class="st5" points="157.3,39.4 140.8,3.4 127.2,33.3 133.5,47.1 127.2,60.9 140.8,90.7 157.3,54.8 153.8,47.1 	"/>
	<polygon class="st6" points="191.5,0.2 175.2,0.2 169.7,12.3 185.7,47.1 169.7,81.9 175.9,95.3 190.9,95.3 213,47.1 	"/>
	<polygon class="st7" points="175.2,0.2 164.2,0.2 169.7,12.3 	"/>
	<polygon class="st7" points="163.6,95.3 175.9,95.3 169.7,81.9 	"/>
	<polygon class="st8" points="258.6,71.9 269.9,47.1 258.7,22.5 247.4,47.1 	"/>
	<polygon class="st8" points="234.5,0.2 224,0.2 229.2,11.6 	"/>
	<polygon class="st8" points="223.3,95.3 235.1,95.3 229.2,82.5 	"/>
	<polygon class="st13" points="18,47.5 36.9,88.7 56,47.1 37.1,5.8 	"/>
	<polygon class="st9" points="56,47.1 77.5,0.2 39.6,0.2 37.1,5.8 	"/>
	<polygon class="st9" points="36.9,88.7 40,95.3 78.1,95.3 56,47.1 	"/>
	<polygon class="st0" points="36.9,88.7 18,47.5 37.1,5.8 36.6,4.6 34.5,0.2 13,0.2 13,95.3 33.9,95.3 36.6,89.5 	"/>
	<polygon class="st11" points="36.6,89.5 33.9,95.3 39.2,95.3 40,95.3 36.9,88.7 	"/>
	<polygon class="st11" points="37.1,5.8 39.6,0.2 38.6,0.2 34.5,0.2 36.6,4.6 	"/>
	<polygon class="st0" points="268.9,0.2 248.5,0.2 258.7,22.5 	"/>
	<polygon class="st0" points="247.8,95.3 269.1,95.3 258.6,71.9 	"/>
	<polygon class="st12" points="247.4,47.1 258.7,22.5 248.5,0.2 234.5,0.2 229.2,11.6 245.5,47.1 229.2,82.5 235.1,95.3 247.8,95.3 
		258.6,71.9 	"/>
	<polygon class="st0" points="245.5,47.1 229.2,11.6 224,0.2 191.5,0.2 213,47.1 190.9,95.3 223.3,95.3 229.2,82.5 	"/>
</g>
<g id="spot">
	<g>
		<g>
			<g>
				<defs>
					<polygon id="SVGID_1_" points="601,95.3 14,95.3 14,0.2 601,0.2 622.3,47.7 					"/>
				</defs>
				<clipPath id="SVGID_00000016042304872862814600000015225154673138633610_">
					<use xlink:href="#SVGID_1_"  style="overflow:visible;"/>
				</clipPath>
				<g style="clip-path:url(#SVGID_00000016042304872862814600000015225154673138633610_);">
					
						<radialGradient id="SVGID_00000049192357167133344530000000600948017719012537_" cx="297.3962" cy="-74.2976" r="187.3915" gradientTransform="matrix(1.2644 0 0 -0.4818 -68.3277 11.5034)" gradientUnits="userSpaceOnUse">
						<stop  offset="0.5" style="stop-color:#D6066E"/>
						<stop  offset="1" style="stop-color:#D6066E;stop-opacity:0"/>
					</radialGradient>
					
						<ellipse style="fill:url(#SVGID_00000049192357167133344530000000600948017719012537_);" cx="307.7" cy="47.3" rx="236.9" ry="84.9"/>
				</g>
			</g>
		</g>
	</g>
</g>
<g id="text">
	<path class="st16" d="M203.9,21.4h-10.4c-0.3,0-0.5,0.2-0.5,0.5V72c0,0.3,0.2,0.5,0.5,0.5h10.4c0.3,0,0.5-0.2,0.5-0.5V21.9
		C204.3,21.6,204.1,21.4,203.9,21.4z M125.3,62.6H95.9V51h23.3c0.3,0,0.5-0.2,0.5-0.5v-9c0-0.3-0.2-0.5-0.5-0.5H95.9v-9.6h28.7
		c0.3,0,0.5-0.2,0.5-0.5v-9c0-0.3-0.2-0.5-0.5-0.5H85.2c-0.3,0-0.5,0.2-0.5,0.5v50.2c0,0.3,0.2,0.5,0.5,0.5h40.1
		c0.3,0,0.5-0.2,0.5-0.5v-9C125.8,62.8,125.5,62.6,125.3,62.6z M182.1,21.5h-10.5c-0.3,0-0.5,0.2-0.5,0.5v31.6
		c0,12.1-24.6,13.1-24.6,0V21.9c0-0.3-0.2-0.5-0.5-0.5h-10.4c-0.3,0-0.5,0.2-0.5,0.5v31.6c0,26.5,47.5,26,47.5,0V21.9
		C182.6,21.7,182.4,21.5,182.1,21.5z M218.7,46.6l22.6-23.7c0.5-0.6,0.1-1.6-0.7-1.6h-12.4c-0.3,0-0.5,0.1-0.7,0.3l-12.8,14.5
		l-8.8,9.9c-0.3,0.4-0.3,0.9,0,1.3l9.1,10.3l13.1,14.6c0.2,0.2,0.4,0.3,0.7,0.3h12.4c0.8,0,1.3-1,0.7-1.6L218.7,46.6z M530.6,71.9
		l-22.5-50.1c-0.1-0.2-0.2-0.3-0.4-0.3h-11.1c-0.2,0-0.3,0.1-0.4,0.3l-22.5,50.1c-0.2,0.3,0.1,0.7,0.4,0.7h11.3
		c0.2,0,0.4-0.1,0.4-0.3l5.3-12.9h16.7c0.3,0,0.6-0.4,0.4-0.7l-3.4-8.6c-0.1-0.2-0.2-0.3-0.4-0.3h-9.5l7.2-17.3l16.4,39.7
		c0.1,0.2,0.2,0.3,0.4,0.3h11.2C530.5,72.5,530.8,72.2,530.6,71.9z M466,45.4c7.1-6.3,4.6-24-12.9-24h-28.3c-0.3,0-0.5,0.2-0.5,0.5
		V72c0,0.3,0.2,0.5,0.5,0.5h28.5C474.6,72.5,475.8,50.2,466,45.4z M453.3,62.6h-17.7V31.5h16.2c8.3,0,8.3,10.5,0,10.5H440
		c-0.3,0-0.5,0.2-0.5,0.5v7.7c0,0.3,0.2,0.5,0.5,0.5h13.3C462.6,50.7,462.7,62.6,453.3,62.6z M280,21.7c-0.1-0.2-0.2-0.3-0.4-0.3
		h-11.1c-0.2,0-0.3,0.1-0.4,0.3l-22.5,50.1c-0.2,0.3,0.1,0.7,0.4,0.7h11.3c0.2,0,0.4-0.1,0.4-0.3l5.3-12.9h16.7
		c0.3,0,0.6-0.4,0.4-0.7l-3.4-8.6c-0.1-0.2-0.2-0.3-0.4-0.3h-9.5l7.2-17.3l16.4,39.7c0.1,0.2,0.2,0.3,0.4,0.3H302
		c0.3,0,0.6-0.4,0.4-0.7L280,21.7z M414.4,21.5h-10.5c-0.3,0-0.5,0.2-0.5,0.5v31.6c0,12.1-24.6,13.1-24.6,0V21.9
		c0-0.3-0.2-0.5-0.5-0.5h-10.4c-0.3,0-0.5,0.2-0.5,0.5v31.6c0,26.5,47.5,26,47.5,0V21.9C414.8,21.7,414.6,21.5,414.4,21.5z
		 M356.5,21.5h-10.4c-0.3,0-0.5,0.2-0.5,0.5v33.3l-28.4-33.7c-0.1-0.1-0.2-0.2-0.4-0.2h-9.1c-0.3,0-0.5,0.2-0.5,0.5V72
		c0,0.3,0.2,0.5,0.5,0.5h10.4c0.3,0,0.5-0.2,0.5-0.5V38.2l28.9,34.1c0.1,0.1,0.2,0.2,0.4,0.2h8.6c0.3,0,0.5-0.2,0.5-0.5V21.9
		C357,21.7,356.7,21.5,356.5,21.5z"/>
</g>
</svg>
